{"title":"The.Final.2010.480p.BRRip.XviD.AC3-LEGi0N","uid":5725601,"size":1577421145,"categoryP":"other","categoryS":"other","magnet":"?xt=urn:btih:6aec61f10991235401e011791ee877f911c7c2c0&amp;dn=The.Final.2010.480p.BRRip.XviD.AC3-LEGi0N&amp;tr=udp%3A%2F%2Ftracker.openbittorrent.com%3A80&amp;tr=udp%3A%2F%2Fopen.demonii.com%3A1337&amp;tr=udp%3A%2F%2Ftracker.coppersurfer.tk%3A6969&amp;tr=udp%3A%2F%2Fexodus.desync.com%3A6969","seeders":0,"leechers":1,"uploader":"TvTeam","files":5,"time":1280454265,"description":". \n  &lt;a href=&quot;\nhttp://www.torrentday.com/&quot; rel=&quot;nofollow&quot; target=&quot;_NEW&quot;&gt;\nhttp://www.torrentday.com/&lt;/a&gt;        :     The Hottest Private Tracker On The Net!!!\n\n\n               www . TorrentDay . Com \n(((((((((((((= Enjoy No RAR releases =))))))))))))))))))))\n\n\n...................................NFO:....................................\n\n.[img]http://leetleech.org/images/77453498694250319603.jpeg[/img]\n\n[b]The Final 2010 480p BRRip XviD AC3-LEGi0N[/title]\n\n[img]http://leetleech.org/images/48874973695367351744.png[/img]\n[color=red]General[/color]\nFormat: AVI\nFile size: 1.45 GiB\nDuration: 1h 32mn\nOverall bit rate: 2 240 Kbps\nIMDb Rating: 5.4/10   1,693 votes\nGenre: Drama | Horror | Thriller\nRelease Date: N/A\nIMDb Link: http://www.imdb.com/title/tt1390535/\nSource: 720p Bluray x264-CiNEFiLE\n\n[color=red]Video[/color]\nFormat: MPEG-4 Visual\nFormat profile: Streaming Video@L1\nFormat settings, BVOP: Yes\nFormat settings, QPel: No\nFormat settings, GMC: No warppoints\nFormat settings, Matrix: Default (H.263)\nMuxing mode: Packed bitstream\nCodec ID: XVID\nBit rate: 1 782 Kbps\nWidth: 720 pixels\nHeight: 304 pixels\nDisplay aspect ratio: 2.35\nFrame rate: 23.976 fps\nResolution: 24 bits\nColorimetry: 4:2:0\nScan type: Progressive\nBits/(Pixel*Frame): 0.340\nStream size: 1.16 GiB (80%)\n\n[color=red]Audio[/color]\nFormat: AC-3\nBit rate mode: Constant\nBit rate: 448 Kbps\nChannel(s): 6 channels\nSampling rate: 48.0 KHz\nStream size: 297 MiB (20%)\n\n[img]http://leetleech.org/images/89524873606771859129.png[/img]\nA group of high school outcasts get revenge on the students that \ntorment them.\n\n[color=red]Tagline:[/color] \nConsequences. None of us are free from them\n\n[img]http://leetleech.org/images/84434050717770922575.png[/img]\nMarc Donato\t... \tDane\nJascha Washington\t... \tKurtis\nWhitney Hoy\t... \tBridget\nJustin Arnold\t... \tBradley\nTravis Tedford\t... \tAndy\nJulin\t... \tHeather\nLindsay Seidel\t... \tEmily\nMark Nutter\t... \tDeputy Henessey\nHunter Garner\t... \tTommy\nEric Isenhower\t... \tJack\nPreston Flagg\t... \tRiggs\nMatthew Posey\t... \tParker\nLaura Ashley Samuels\t... \tKelly\nVincent Silochan\t... \tRavi\nFarah White\t... \tAngie\n\n[color=red]GREETZ[/color]\nNoir | xXTHORNXx | bigimac | LUSi |\n\nkempas | KaN1vE | mike160 | skillz |\n\nLungbuster | Sheikh | dillon1369 |\n\nFLAWL3SS | AND ALL P2P![/b]\n\n[img]http://leetleech.org/images/95521316153253938506.png[/img]\n[img]http://leetleech.org/images/25105380536520340777.png[/img]\n[img]http://leetleech.org/images/91859335337957656200.png[/img]\n[img]http://leetleech.org/images/06330004436546267824.png[/img]\n[img]http://leetleech.org/images/76079202481016245895.png[/img]\n[img]http://leetleech.org/images/99481354133398348382.png[/img]\n[img]http://leetleech.org/images/12755021538703799215.png[/img]","torrent":{"xt":"urn:btih:6aec61f10991235401e011791ee877f911c7c2c0","amp;dn":"The.Final.2010.480p.BRRip.XviD.AC3-LEGi0N","amp;tr":["udp%3A%2F%2Ftracker.openbittorrent.com%3A80","udp%3A%2F%2Fopen.demonii.com%3A1337","udp%3A%2F%2Ftracker.coppersurfer.tk%3A6969","udp%3A%2F%2Fexodus.desync.com%3A6969"],"infoHash":"6aec61f10991235401e011791ee877f911c7c2c0","infoHashBuffer":{"type":"Buffer","data":[106,236,97,241,9,145,35,84,1,224,17,121,30,232,119,249,17,199,194,192]},"announce":[],"urlList":[]}}